<svg viewBox="0 0 900 400" xmlns="http://www.w3.org/2000/svg" font-family="'Courier New', monospace">
  <defs>
    <linearGradient id="bg1" x1="0%" y1="0%" x2="100%" y2="100%">
      <stop offset="0%" style="stop-color:#0d1117"/>
      <stop offset="100%" style="stop-color:#161b22"/>
    </linearGradient>
    <linearGradient id="accent1" x1="0%" y1="0%" x2="100%" y2="0%">
      <stop offset="0%" style="stop-color:#58a6ff"/>
      <stop offset="100%" style="stop-color:#79c0ff"/>
    </linearGradient>
    <filter id="glow1">
      <feGaussianBlur stdDeviation="3" result="coloredBlur"/>
      <feMerge><feMergeNode in="coloredBlur"/><feMergeNode in="SourceGraphic"/></feMerge>
    </filter>
    <pattern id="grid1" width="40" height="40" patternUnits="userSpaceOnUse">
      <path d="M 40 0 L 0 0 0 40" fill="none" stroke="#21262d" stroke-width="1"/>
    </pattern>
  </defs>

  <!-- Background -->
  <rect width="900" height="400" fill="url(#bg1)"/>
  <rect width="900" height="400" fill="url(#grid1)" opacity="0.6"/>

  <!-- Left decorative bar -->
  <rect x="0" y="0" width="4" height="400" fill="url(#accent1)"/>

  <!-- Top code line -->
  <text x="24" y="38" fill="#3d444d" font-size="11" letter-spacing="2">// STAGE · 4 SEMAINES · 2025</text>

  <!-- Browser window mockup -->
  <rect x="480" y="60" width="380" height="280" rx="8" fill="#0d1117" stroke="#30363d" stroke-width="1.5"/>
  <!-- Browser chrome -->
  <rect x="480" y="60" width="380" height="34" rx="8" fill="#161b22"/>
  <rect x="480" y="82" width="380" height="12" fill="#161b22"/>
  <circle cx="502" cy="77" r="5" fill="#ff5f57"/>
  <circle cx="520" cy="77" r="5" fill="#febc2e"/>
  <circle cx="538" cy="77" r="5" fill="#28c840"/>
  <rect x="555" y="69" width="240" height="16" rx="8" fill="#21262d"/>
  <text x="635" y="81" fill="#3d444d" font-size="9" text-anchor="middle">intranet.saint-saulve.fr</text>
  <!-- Sidebar -->
  <rect x="480" y="94" width="80" height="246" fill="#0d1117" stroke="#21262d" stroke-width="0.5"/>
  <rect x="492" y="112" width="56" height="8" rx="2" fill="#21262d"/>
  <rect x="492" y="128" width="44" height="6" rx="2" fill="#1c2128"/>
  <rect x="492" y="142" width="50" height="6" rx="2" fill="#1c2128"/>
  <rect x="492" y="156" width="38" height="6" rx="2" fill="#1c2128"/>
  <rect x="492" y="170" width="48" height="6" rx="2" fill="#1c2128"/>
  <!-- Active menu item -->
  <rect x="480" y="108" width="80" height="22" fill="#1f6feb" opacity="0.2"/>
  <rect x="480" y="108" width="3" height="22" fill="#58a6ff"/>

  <!-- Main content area -->
  <!-- Dashboard header -->
  <rect x="568" y="104" width="280" height="40" fill="#161b22"/>
  <text x="580" y="120" fill="#f0f6fc" font-size="11" font-weight="bold">Tableau de bord</text>
  <text x="580" y="135" fill="#3d444d" font-size="9">Mairie de Saint-Saulve · Intranet</text>

  <!-- Stat cards -->
  <rect x="568" y="152" width="82" height="52" rx="4" fill="#161b22" stroke="#30363d" stroke-width="1"/>
  <text x="579" y="170" fill="#3d444d" font-size="8">Actualités</text>
  <text x="579" y="190" fill="#58a6ff" font-size="18" font-weight="bold" filter="url(#glow1)">24</text>

  <rect x="658" y="152" width="82" height="52" rx="4" fill="#161b22" stroke="#30363d" stroke-width="1"/>
  <text x="669" y="170" fill="#3d444d" font-size="8">Utilisateurs</text>
  <text x="669" y="190" fill="#3fb950" font-size="18" font-weight="bold">87</text>

  <rect x="748" y="152" width="92" height="52" rx="4" fill="#161b22" stroke="#30363d" stroke-width="1"/>
  <text x="759" y="170" fill="#3d444d" font-size="8">Documents</text>
  <text x="759" y="190" fill="#d29922" font-size="18" font-weight="bold">142</text>

  <!-- News feed -->
  <rect x="568" y="212" width="192" height="118" rx="4" fill="#0d1117" stroke="#21262d" stroke-width="1"/>
  <text x="578" y="228" fill="#58a6ff" font-size="9" font-weight="bold">■ ACTUALITÉS</text>
  <line x1="578" y1="234" x2="748" y2="234" stroke="#21262d" stroke-width="0.5"/>
  <rect x="578" y="241" width="8" height="8" rx="1" fill="#1f6feb" opacity="0.6"/>
  <rect x="592" y="241" width="100" height="5" rx="1" fill="#21262d"/>
  <rect x="592" y="249" width="70" height="4" rx="1" fill="#1c2128"/>
  <rect x="578" y="260" width="8" height="8" rx="1" fill="#1f6feb" opacity="0.4"/>
  <rect x="592" y="260" width="110" height="5" rx="1" fill="#21262d"/>
  <rect x="592" y="268" width="80" height="4" rx="1" fill="#1c2128"/>
  <rect x="578" y="279" width="8" height="8" rx="1" fill="#1f6feb" opacity="0.3"/>
  <rect x="592" y="279" width="90" height="5" rx="1" fill="#21262d"/>
  <rect x="592" y="287" width="60" height="4" rx="1" fill="#1c2128"/>
  <rect x="578" y="298" width="8" height="8" rx="1" fill="#1f6feb" opacity="0.2"/>
  <rect x="592" y="298" width="105" height="5" rx="1" fill="#21262d"/>
  <rect x="592" y="306" width="75" height="4" rx="1" fill="#1c2128"/>

  <!-- Mini chart -->
  <rect x="768" y="212" width="92" height="118" rx="4" fill="#0d1117" stroke="#21262d" stroke-width="1"/>
  <text x="778" y="228" fill="#3d444d" font-size="9">Activité</text>
  <polyline points="778,310 788,290 798,300 808,275 818,285 828,260 838,270 848,250" fill="none" stroke="#58a6ff" stroke-width="1.5" filter="url(#glow1)"/>
  <polyline points="778,310 788,290 798,300 808,275 818,285 828,260 838,270 848,250 848,320 778,320" fill="#1f6feb" opacity="0.15"/>

  <!-- Left panel content -->
  <!-- Title block -->
  <text x="24" y="90" fill="#f0f6fc" font-size="36" font-weight="900" letter-spacing="-1">INTRANET</text>
  <text x="24" y="118" fill="#f0f6fc" font-size="36" font-weight="900" letter-spacing="-1">MAIRIE</text>

  <!-- Accent line -->
  <rect x="24" y="132" width="120" height="3" fill="url(#accent1)"/>

  <text x="24" y="162" fill="#3d444d" font-size="12">Développeur Web · Stage</text>

  <!-- Tech stack badges -->
  <rect x="24" y="188" width="46" height="22" rx="11" fill="#1c2128" stroke="#30363d" stroke-width="1"/>
  <text x="47" y="203" fill="#58a6ff" font-size="10" text-anchor="middle">PHP</text>

  <rect x="76" y="188" width="42" height="22" rx="11" fill="#1c2128" stroke="#30363d" stroke-width="1"/>
  <text x="97" y="203" fill="#e6db74" font-size="10" text-anchor="middle">JS</text>

  <rect x="124" y="188" width="58" height="22" rx="11" fill="#1c2128" stroke="#30363d" stroke-width="1"/>
  <text x="153" y="203" fill="#f8d2a0" font-size="10" text-anchor="middle">MySQL</text>

  <!-- Features -->
  <text x="24" y="250" fill="#3d444d" font-size="10" letter-spacing="1">RÉALISATIONS</text>
  <text x="24" y="272" fill="#58a6ff" font-size="12">→</text>
  <text x="40" y="272" fill="#8b949e" font-size="12">Gestion des actualités</text>
  <text x="24" y="292" fill="#58a6ff" font-size="12">→</text>
  <text x="40" y="292" fill="#8b949e" font-size="12">Dashboard interactif</text>
  <text x="24" y="312" fill="#58a6ff" font-size="12">→</text>
  <text x="40" y="312" fill="#8b949e" font-size="12">Site dynamique</text>

  <!-- Bottom watermark -->
  <text x="24" y="378" fill="#21262d" font-size="10">Mairie de Saint-Saulve · 2025</text>
  <text x="876" y="378" fill="#21262d" font-size="10" text-anchor="end">Stage 1 · 4 semaines</text>
</svg>
